<?xml version="1.0" encoding="UTF-8"?>
<svg id="Camada_2" xmlns="http://www.w3.org/2000/svg" viewBox="0 0 471.12 337">
  <defs>
    <style>
      .cls-1, .cls-2 {
        fill: #07628f;
      }

      .cls-2 {
        fill-rule: evenodd;
      }
    </style>
  </defs>
  <g id="Camada_1-2" data-name="Camada_1">
    <polygon class="cls-2" points="257.38 223.12 285.29 258.39 86.11 230.79 209.5 92.64 86.11 110.29 110.34 75.37 284.73 51.21 155.52 207.44 257.38 223.12 257.38 223.12"/>
    <path class="cls-1" d="M471.12,337l-412.02-59.08c-18.6-3.02-33.86-12.11-44.13-26.3-9.94-13.72-14.97-31.62-14.97-53.19v-93.99c0-22.38,5.44-39.25,16.63-51.55,10.59-11.65,26.24-18.93,47.84-22.25l.27-.04L287.36,0h1.15c45.7,0,82.88,37.18,82.88,82.88v145.3c.96,2.42,6.1,12.68,31.9,40.85,15.58,17.01,30.68,31.76,30.84,31.91l36.98,36.06ZM64.36,244.65l311.91,44.73c-.09-.1-.19-.21-.28-.31-35.32-38.97-38.27-51.23-38.27-59.65V82.88c0-26.77-21.5-48.62-48.13-49.19l-220.12,30.25c-27.42,4.25-35.78,13.73-35.78,40.5v93.99c0,27.3,10.32,42.85,30.68,46.22Z"/>
  </g>
</svg>