<?xml version="1.0" encoding="UTF-8"?>
<svg id="Camada_2" xmlns="http://www.w3.org/2000/svg" viewBox="0 0 1948.35 379.55">
  <defs>
    <style>
      .cls-1, .cls-2 {
        fill: #fff;
      }

      .cls-2 {
        fill-rule: evenodd;
      }
    </style>
  </defs>
  <g id="Camada_1-2" data-name="Camada_1">
    <polygon class="cls-2" points="257.38 265.68 285.29 300.95 86.11 273.34 209.5 135.19 86.11 152.85 110.34 117.93 284.73 93.76 155.52 250 257.38 265.68 257.38 265.68"/>
    <path class="cls-1" d="M471.12,379.55l-412.02-59.08c-18.6-3.02-33.86-12.11-44.13-26.3-9.94-13.72-14.97-31.62-14.97-53.19v-93.99c0-22.38,5.44-39.25,16.63-51.55,10.59-11.65,26.24-18.93,47.84-22.25l.27-.04,222.62-30.59h1.15c45.7,0,82.88,37.18,82.88,82.88v145.3c.96,2.42,6.1,12.68,31.9,40.85,15.58,17.01,30.68,31.76,30.84,31.91l36.98,36.06ZM64.36,287.2l311.91,44.73c-.09-.1-.19-.21-.28-.31-35.32-38.97-38.27-51.23-38.27-59.65V125.44c0-26.77-21.5-48.62-48.13-49.19l-220.12,30.25c-27.42,4.25-35.78,13.73-35.78,40.5v93.99c0,27.3,10.32,42.85,30.68,46.22Z"/>
    <g>
      <path class="cls-1" d="M451.33,300.95v-25.52l120.3-153.11h-115.44v-27.95h157.97v25.52l-119.89,153.11h120.7v27.95h-163.64Z"/>
      <path class="cls-1" d="M741.34,304.19c-15.13,0-27.34-1.62-36.66-4.86s-16.4-8.1-21.26-14.58c-4.86-6.48-8.17-14.78-9.92-24.91-1.76-10.13-2.63-22.21-2.63-36.25V94.38h33.21v117.87c0,13.77.54,24.85,1.62,33.21,1.08,8.37,3.44,14.65,7.09,18.83,3.65,4.19,8.84,6.96,15.59,8.3,6.75,1.35,15.52,2.03,26.33,2.03,13.5,0,24.03-1.68,31.59-5.06,7.56-3.37,13.03-8.23,16.4-14.58,3.37-6.34,5.53-14.04,6.48-23.09.94-9.04,1.42-19.37,1.42-30.99v-106.53h32.81v206.57h-29.57l-1.21-29.57h-2.83c-2.7,6.48-6.68,12.15-11.95,17.01-5.27,4.86-12.49,8.71-21.67,11.54-9.18,2.84-20.8,4.25-34.83,4.25Z"/>
      <path class="cls-1" d="M913.48,300.95V94.38h29.97l1.22,29.57h2.43c2.43-6.48,6.14-12.15,11.14-17.01,4.99-4.86,11.61-8.71,19.85-11.54,8.23-2.84,18.83-4.25,31.8-4.25,18.36,0,32,2.63,40.91,7.9,8.91,5.27,15.12,13.57,18.63,24.91h2.43c2.7-6.48,6.61-12.15,11.75-17.01,5.13-4.86,12.01-8.71,20.66-11.54,8.64-2.84,19.3-4.25,32-4.25,18.63,0,32.54,2.83,41.72,8.51,9.18,5.67,15.25,14.45,18.23,26.33,2.97,11.89,4.46,27.14,4.46,45.77v129.21h-32.81v-117.87c0-14.04-.54-25.18-1.62-33.42-1.08-8.23-3.11-14.44-6.08-18.63-2.97-4.18-7.43-6.95-13.37-8.3-5.94-1.35-13.91-2.03-23.9-2.03-11.61,0-20.8,1.56-27.54,4.66-6.75,3.11-11.68,7.77-14.78,13.97-3.11,6.21-5.06,13.91-5.87,23.09-.81,9.18-1.22,19.85-1.22,32v106.53h-32.81v-117.87c0-14.04-.54-25.18-1.62-33.42-1.08-8.23-3.11-14.44-6.08-18.63-2.97-4.18-7.43-6.95-13.37-8.3-5.94-1.35-13.91-2.03-23.9-2.03-11.61,0-20.8,1.69-27.54,5.06-6.75,3.38-11.61,8.17-14.58,14.38-2.97,6.22-4.86,13.91-5.67,23.09-.81,9.18-1.22,19.58-1.22,31.19v106.53h-33.21Z"/>
      <path class="cls-1" d="M1284.09,300.95v-163.23h-39.69v-43.34h39.69v-59.95h53.87v59.95h46.98v43.34h-46.98v163.23h-53.87Z"/>
      <path class="cls-1" d="M1469.2,304.19c-13.23,0-24.44-1.96-33.62-5.87-9.18-3.91-16.14-10.39-20.86-19.44-4.73-9.04-7.09-20.86-7.09-35.44,0-16.2,1.89-28.96,5.67-38.28,3.78-9.32,10.39-16.06,19.85-20.25,9.45-4.18,22.54-6.28,39.29-6.28,2.7,0,6.41.07,11.14.2,4.72.14,10.26.27,16.61.41,6.34.14,12.62.27,18.83.4,6.21.14,11.88.34,17.01.61v-8.1c0-8.91-.61-15.93-1.82-21.06-1.21-5.13-3.78-8.84-7.7-11.14-3.92-2.29-9.52-3.78-16.81-4.46-7.29-.67-16.88-1.01-28.76-1.01-5.67,0-12.42.14-20.25.41-7.83.27-15.39.68-22.68,1.21-7.29.54-13.1,1.22-17.42,2.03v-40.5c11.61-2.16,24.16-3.78,37.67-4.86,13.5-1.08,27.14-1.62,40.91-1.62,16.2,0,29.7,1.01,40.5,3.04,10.8,2.03,19.64,5.2,26.53,9.52,6.89,4.32,11.95,9.86,15.19,16.61,3.24,6.75,5.4,14.58,6.48,23.49,1.08,8.91,1.62,19.31,1.62,31.19v125.97h-49.82l-2.03-25.11h-2.43c-4.86,8.37-11.01,14.65-18.43,18.83-7.43,4.19-15.26,6.82-23.49,7.9-8.24,1.08-16.27,1.62-24.1,1.62ZM1495.12,262.87c5.4,0,10.33-.4,14.78-1.21,4.46-.81,8.44-2.23,11.95-4.25,3.51-2.03,6.08-4.66,7.7-7.9,2.16-3.51,3.78-7.83,4.86-12.96,1.08-5.13,1.62-11.34,1.62-18.63v-6.08h-48.61c-7.83,0-13.77.54-17.82,1.62-4.05,1.08-6.68,3.51-7.9,7.29-1.22,3.78-1.82,9.46-1.82,17.01,0,7.02.74,12.35,2.23,16,1.48,3.65,4.79,6.08,9.92,7.29,5.13,1.21,12.82,1.82,23.09,1.82Z"/>
      <path class="cls-1" d="M1647.41,300.95V0h53.87v300.95h-53.87Z"/>
      <path class="cls-1" d="M1758.79,300.95V0h53.47v175.79h17.01l59.54-81.41h58.33l-74.53,99.24,75.74,107.34h-60.76l-58.33-81.82h-17.01v81.82h-53.47Z"/>
    </g>
  </g>
</svg>