<?xml version="1.0" encoding="UTF-8"?>
<svg id="Camada_1" xmlns="http://www.w3.org/2000/svg" viewBox="0 0 2458 512">
  <defs>
    <style>
      .cls-1 {
        fill: #fff;
      }
    </style>
  </defs>
  <path class="cls-1" d="M642.62,452.54c-18.17-2.61-35.23-5.06-52.3-7.51-30.98-4.44-61.96-8.89-92.95-13.33-30.98-4.44-61.97-8.85-92.95-13.29-30.8-4.41-61.59-8.83-92.39-13.25-31.17-4.47-62.34-8.95-93.51-13.42-17.87-2.56-35.87-4.42-53.59-7.78-34.52-6.56-58.21-32.19-63.23-67.56-1.15-8.14-1.73-16.43-1.77-24.66-.19-36.14-.42-72.28.13-108.41.16-10.81,1.48-21.97,4.53-32.31,8.32-28.2,29.54-42.75,57.02-48.57,17.81-3.77,36.01-5.73,54.07-8.28,29.29-4.12,58.6-8.04,87.9-12.07,26.63-3.66,53.26-7.35,79.89-11.02,13.89-1.92,27.74-4.21,41.67-5.67,43.92-4.61,85.32,22.94,98.52,65.97,2.72,8.85,4.09,18.44,4.16,27.71.38,53.63.24,107.26.11,160.88-.01,5.64.94,10.73,4.6,15.01,16.74,19.55,32.95,39.59,50.52,58.36,17.46,18.66,36.32,36,54.55,53.94,1.46,1.44,2.84,2.97,5,5.22ZM532.41,398.07c.26-.44.53-.87.79-1.31-1.73-1.98-3.55-3.88-5.17-5.95-9.95-12.69-20.17-25.2-29.68-38.22-6.23-8.54-8.67-18.39-8.61-29.26.31-53.63.15-107.26.12-160.9,0-3.64.06-7.35-.59-10.91-5.88-32.24-31.1-51.28-63.87-47.42-29.56,3.49-59.01,7.89-88.5,11.93-29.49,4.04-58.97,8.12-88.46,12.21-24.92,3.46-49.89,6.56-74.72,10.54-22.87,3.67-32.09,13.22-35.24,34.68-.42,2.83-.38,5.75-.38,8.63-.02,36.91-.06,73.82.04,110.72.02,5.55.41,11.14,1.19,16.63,2.86,20.23,15.1,34.06,33.32,37.08,16.48,2.73,33.06,4.82,49.6,7.19,30.8,4.4,61.59,8.78,92.39,13.19,30.99,4.44,61.97,8.89,92.96,13.35,28.51,4.1,57.02,8.21,85.54,12.29,13.09,1.87,26.19,3.68,39.28,5.51Z"/>
  <path class="cls-1" d="M2349.68,361.9h-7.57c-17.9,0-35.82-.29-53.71.16-6.18.15-9.67-2.02-13.12-6.94-19.08-27.23-38.62-54.14-57.74-81.35-3.08-4.39-6.19-6.76-11.72-6.08-3.95.49-8.02.1-12.5.1-.15,3.16-.38,5.8-.38,8.45-.03,26.14-.14,52.29.08,78.43.05,5.38-1.36,7.47-7.09,7.35-16.16-.33-32.34-.23-48.51-.04-4.46.05-5.85-1.32-5.85-5.92.13-111.69.1-223.38.11-335.06,0-1.51.13-3.02.22-5.1,2.21-.12,4.25-.33,6.3-.34,15.79-.03,31.58.26,47.36-.16,5.88-.15,7.49,1.57,7.48,7.39-.19,61.71-.14,123.41-.1,185.12,0,11.5-1.27,9.66,10.08,10.42,7.38.49,11.8-2.06,16.09-8.08,19.65-27.54,39.89-54.66,59.76-82.05,2.18-3,4.41-4.08,8.08-4.05,20.02.18,40.03.09,61.28.09-1.69,2.44-2.84,4.24-4.12,5.95-25.99,34.58-51.93,69.2-78.09,103.66-2.7,3.56-2.7,5.81-.15,9.39,26.43,37.1,52.68,74.34,78.97,111.54,1.31,1.86,2.56,3.77,4.84,7.13Z"/>
  <path class="cls-1" d="M1874.27,222.51c.37-12.32.82-24.78-3.24-36.8-2.36-6.99-8.07-11.23-14.97-12.17-13.29-1.81-26.73-3.63-40.09-3.48-22.67.24-45.31,1.99-67.97,3.11-2.09.1-4.18.24-6.6.38v-45.87c11.52-1.53,23.03-3.8,34.63-4.44,23.42-1.29,46.91-2.54,70.34-2.15,14.28.24,28.83,2.26,42.68,5.75,28.16,7.1,42.12,24.44,44.39,53.33,1.28,16.26,2.1,32.59,2.22,48.89.3,41.91,0,83.82.22,125.73.03,5.37-1.12,7.4-6.91,7.25-14.81-.39-29.65-.24-44.47-.07-4.23.05-6.15-1-6.31-5.7-.26-7.59-1.35-15.15-2.22-24.02-2.11,1.51-3.59,2.07-4.26,3.13-11.5,18.23-28.83,27.13-49.54,28.51-16.59,1.11-33.59,1.54-49.96-.82-25.94-3.75-41.14-21.38-44.86-47.92-2.34-16.7-1.78-33.38,1.28-49.9,4.64-25.04,19.65-39.64,46.04-41.54,24.87-1.79,49.93-.92,74.91-1.17,7.86-.08,15.72-.01,24.66-.01ZM1837.33,259.24c-.01-.22-.02-.45-.04-.67-12.63.71-25.32.94-37.88,2.32-7.96.87-11.73,5-12.36,12.89-.72,9.11-.85,18.35-.17,27.45.72,9.61,5.14,14.6,14.79,15.43,13.31,1.15,26.81,1.74,40.11.81,11.89-.83,22.03-6.14,27.19-18.25,5.03-11.81,5.55-24.18,5.25-36.66-.03-1.14-2.98-3.13-4.62-3.17-10.75-.29-21.52-.15-32.28-.15Z"/>
  <path class="cls-1" d="M1339.8,362.04h-38.06c0-2.58,0-4.83,0-7.09,0-46.14.14-92.27-.1-138.41-.05-10.53-.93-21.12-2.25-31.58-2.41-19.08-9.77-26.97-28.92-29.21-11.74-1.37-23.91-1.63-35.62-.21-24.17,2.94-36.46,16.23-39.31,41.01-1.33,11.62-2.14,23.36-2.21,35.05-.26,41.14-.1,82.27-.1,123.41v7.04h-37.8V124.34h33.87c.57,11.15,1.15,22.29,1.72,33.44.76.52,1.51,1.04,2.27,1.56.43-1.22.78-2.47,1.3-3.65,9.11-20.47,26.23-30.04,47.21-33.53,18.34-3.05,36.83-2.76,55.11.99,17.7,3.63,30.15,13.77,36.72,30.78.48,1.24,1.08,2.43,1.72,3.59.14.25.66.29,1.38.58.54-.51,1.47-1.01,1.82-1.77,9.54-20.69,27-30.33,48.37-33.94,19.51-3.3,39.09-3.18,58.44,1.54,22.65,5.53,34.15,21.16,37.51,43.15,1.99,13.06,3.41,26.34,3.52,39.53.4,49.4.16,98.81.16,148.21v7.2h-37.91c0-2.31,0-4.54,0-6.76-.05-48.83,0-97.65-.26-146.48-.04-8.42-1.01-16.89-2.27-25.22-2.7-17.91-9.88-25.68-27.86-27.6-12.7-1.35-25.84-1.68-38.46-.03-23.14,3.03-34.62,15.44-37.53,38.52-1.42,11.21-2.28,22.57-2.35,33.87-.27,42.1-.11,84.2-.11,126.29v7.45Z"/>
  <path class="cls-1" d="M1698.74,173.44c-2.48,0-4.55,0-6.62,0-13.28,0-26.57.27-39.84-.12-5.75-.17-7.59,1.41-7.56,7.37.25,41.32.13,82.65.13,123.97,0,16.91-.18,33.83.11,50.74.09,5.04-1.38,6.69-6.49,6.6-15.59-.28-31.18-.09-46.77-.1-8.32,0-8.34-.02-8.34-8.17,0-56.32,0-112.63,0-168.95,0-1.92-.15-3.86.02-5.76.36-4.19-1.27-5.76-5.63-5.65-10.97.26-21.94.08-32.91.08-2.09,0-4.18,0-6.77,0v-49.11h44.88c.16-3.01.39-5.44.4-7.88.03-18.45.15-36.9-.07-55.35-.06-4.71,1.28-6.27,6.17-6.2,18.08.28,36.17.11,55.03.11.14,2.4.37,4.6.37,6.8.03,18.07.01,36.13.02,54.2q0,8.21,7.97,8.21c15.16,0,30.33,0,45.9,0v49.21Z"/>
  <path class="cls-1" d="M874.41,124.29h38.37c0,2.69,0,5.12,0,7.54,0,44.21-.22,88.43.13,132.64.1,13.01,1.2,26.09,2.94,39,1.99,14.79,11,23.67,25.91,26.2,17.59,2.99,35.3,3.53,52.83.32,23.85-4.37,36.09-17.9,39.06-42.73,1.36-11.42,2.17-22.97,2.25-34.47.27-40.37.1-80.74.1-121.11v-7.26h37.43v237.57h-33.54c-.58-11.13-1.17-22.29-1.8-34.23-1.69.87-3.07,1.1-3.41,1.82-10.66,22.69-30.44,31.5-53.58,34.83-18.78,2.71-37.66,2.64-56.31-.98-29.49-5.72-44.53-22.35-47.92-53.22-1.45-13.15-2.27-26.43-2.35-39.65-.28-46.52-.11-93.04-.11-139.56v-6.72Z"/>
  <path class="cls-1" d="M2003.62,15.53c5.42,0,10.56,0,15.7,0,12.9,0,25.8.27,38.69-.13,5.51-.17,6.77,1.81,6.75,6.92-.15,48.63-.09,97.26-.09,145.89,0,61.89,0,123.79,0,185.68,0,7.96-.03,7.98-7.95,7.99-15.79.02-31.57-.14-47.35.09-4.71.07-6.28-1.34-6.28-6.19.12-111.49.09-222.97.11-334.46,0-1.68.24-3.36.43-5.79Z"/>
  <path class="cls-1" d="M809.56,362.12h-188.45c0-9.75-.24-19.27.19-28.76.1-2.11,2.45-4.22,3.98-6.16,42.78-54.4,85.59-108.78,128.39-163.17,1.73-2.2,3.41-4.44,5.91-7.69h-132.44v-31.9h181.59c0,9.49.27,18.86-.19,28.18-.12,2.31-2.46,4.63-4.09,6.71-43.03,54.94-86.11,109.84-129.17,164.75-1.24,1.58-2.44,3.2-4.54,5.97h138.84v32.06Z"/>
  <path class="cls-1" d="M532.41,398.07c-13.09-1.83-26.19-3.64-39.28-5.51-28.52-4.08-57.03-8.2-85.54-12.29-30.98-4.45-61.97-8.91-92.96-13.35-30.79-4.41-61.59-8.79-92.39-13.19-16.54-2.36-33.12-4.46-49.6-7.19-18.22-3.02-30.47-16.84-33.32-37.08-.78-5.49-1.17-11.08-1.19-16.63-.1-36.91-.06-73.82-.04-110.72,0-2.88-.04-5.79.38-8.63,3.16-21.46,12.38-31.02,35.24-34.68,24.83-3.98,49.81-7.08,74.72-10.54,29.48-4.09,58.97-8.17,88.46-12.21,29.49-4.04,58.94-8.44,88.5-11.93,32.77-3.87,57.99,15.17,63.87,47.42.65,3.56.58,7.27.59,10.91.03,53.63.19,107.26-.12,160.9-.06,10.87,2.38,20.72,8.61,29.26,9.5,13.02,19.72,25.53,29.68,38.22,1.62,2.06,3.44,3.97,5.17,5.95-.26.44-.53.87-.79,1.31ZM426.52,361.65c.19-.44.38-.88.57-1.32-9.76-12.34-19.48-24.7-29.34-36.95-.83-1.03-2.57-1.64-3.98-1.86-30.54-4.73-61.1-9.35-91.65-14.04-7.44-1.14-14.85-2.45-23.4-3.86,49.83-60.17,98.81-119.33,148.5-179.34-2.29,0-3.39-.13-4.46.02-28.35,3.92-56.69,7.88-85.04,11.81-32.53,4.51-65.03,9.27-97.62,13.32-9,1.12-16.01,3.54-20.26,12.13-2.1,4.26-5.39,7.94-8.12,11.9-3.78,5.48-7.53,10.96-12.08,17.59,47.7-6.82,93.96-13.42,140.22-20.03.27.43.54.87.82,1.3-46.79,52.33-93.58,104.67-141.19,157.92,76.52,10.59,151.77,21.01,227.01,31.42Z"/>
  <path class="cls-1" d="M1837.33,259.24c10.76,0,21.53-.14,32.28.15,1.64.04,4.59,2.03,4.62,3.17.3,12.48-.22,24.85-5.25,36.66-5.16,12.11-15.3,17.42-27.19,18.25-13.3.93-26.8.34-40.11-.81-9.65-.83-14.07-5.82-14.79-15.43-.68-9.1-.55-18.35.17-27.45.62-7.89,4.4-12.02,12.36-12.89,12.56-1.37,25.24-1.6,37.88-2.32.01.22.02.45.04.67Z"/>
  <path class="cls-1" d="M426.52,361.65c-75.25-10.42-150.5-20.83-227.01-31.42,47.61-53.25,94.4-105.59,141.19-157.92-.27-.43-.54-.87-.82-1.3-46.26,6.61-92.52,13.22-140.22,20.03,4.55-6.62,8.31-12.11,12.08-17.59,2.73-3.96,6.01-7.63,8.12-11.9,4.24-8.6,11.25-11.02,20.26-12.13,32.59-4.04,65.09-8.81,97.62-13.32,28.35-3.93,56.69-7.89,85.04-11.81,1.06-.15,2.16-.02,4.46-.02-49.69,60.01-98.68,119.17-148.5,179.34,8.55,1.42,15.96,2.72,23.4,3.86,30.55,4.69,61.11,9.32,91.65,14.04,1.41.22,3.14.83,3.98,1.86,9.86,12.25,19.59,24.62,29.34,36.95-.19.44-.38.88-.57,1.32Z"/>
</svg>